<?xml version="1.0" encoding="utf-8"?>
<!-- Generator: Adobe Illustrator 16.0.0, SVG Export Plug-In . SVG Version: 6.00 Build 0)  -->
<!DOCTYPE svg PUBLIC "-//W3C//DTD SVG 1.1//EN" "http://www.w3.org/Graphics/SVG/1.1/DTD/svg11.dtd">
<svg version="1.1" id="Layer_1" xmlns="http://www.w3.org/2000/svg" xmlns:xlink="http://www.w3.org/1999/xlink" x="0px" y="0px"
	 width="300px" height="80px" viewBox="0 0 300 80" enable-background="new 0 0 300 80" xml:space="preserve">
<g>
	<path fill="#DFAF0C" d="M92.726,45.886c2.463,6.241,4.095,12.505,5.223,18.355c0.389,2.043,1.909,2.831,3.392,1.833
		c0.235-0.156,0.469-0.313,0.695-0.47c1.399-0.94,2.22-3.243,1.821-5.198c-1.121-5.483-2.694-11.181-4.913-16.815
		C97.609,45.465,95.411,46.391,92.726,45.886z M69.234,54.064c-2.158,2.633-1.733,6.445,0.824,8.391
		c0.398,0.305,0.796,0.602,1.185,0.891c2.334,1.767,5.755,1.255,7.63-1.166c4.787-6.186,8.367-12.068,11.456-17.082
		c-3.09-1.407-5.937-4.104-7.929-7.131C78.73,42.443,74.39,47.746,69.234,54.064z M100.351,38.132
		c0.07,1.373-0.106,2.622-0.487,3.692c3.98,1.591,11.745,4.609,15.175,5.853c1.242,0.448,2.295-0.669,2.33-2.435
		c0.007-0.282,0.014-0.563,0.011-0.844c0.028-1.738-1.026-3.507-2.333-4.013c-3.605-1.379-11.504-4.547-15.596-6.234
		C99.961,35.44,100.274,36.787,100.351,38.132z M57.55,27.976c-0.103,0.279-0.198,0.558-0.301,0.846
		c-0.636,1.816,0.734,3.353,3.146,3.465c6.827,0.285,13.883,1.318,20.594,3.077c-0.6-1.432-0.91-2.849-0.854-4.186
		c0.051-1.293,0.447-2.391,1.096-3.279c-6.082-1.54-12.402-2.475-18.6-2.787c-0.22-0.011-0.439-0.004-0.657,0.011
		C59.966,25.263,58.093,26.455,57.55,27.976z M98.133,18.716c-2.037,2.493-4.08,5.005-6.213,7.611
		c2.625,1.167,4.909,3.218,6.411,5.622c1.822-2.917,3.628-5.693,5.501-8.385c0.701-1.014,0.217-2.796-1.145-3.947
		c-0.223-0.187-0.438-0.373-0.662-0.559c-0.82-0.688-1.782-1.016-2.593-0.959C98.9,18.136,98.44,18.344,98.133,18.716z
		 M77.538,12.48c-0.269,0.045-0.546,0.1-0.823,0.146c-1.724,0.322-2.505,1.561-1.693,2.759c2.289,3.375,4.886,7.019,7.572,11.182
		c1.755-1.237,4.296-1.661,7.079-1.004c-2.615-4.15-5.234-7.862-7.602-11.355c-0.773-1.147-2.519-1.894-4.09-1.784
		C77.833,12.433,77.686,12.453,77.538,12.48z"/>
</g>
<g>
	<polygon fill-rule="evenodd" clip-rule="evenodd" fill="#DFAF0C" points="125.588,52.223 124.309,58.959 125.028,58.959 
		125.628,55.791 127.497,55.791 126.907,58.959 127.626,58.959 128.906,52.223 128.187,52.223 127.637,55.131 125.748,55.131 
		126.308,52.223 	"/>
	<path fill-rule="evenodd" clip-rule="evenodd" fill="#DFAF0C" d="M132.717,54.041c-1.439,0-2.138,2.059-2.138,3.358
		c0,0.859,0.28,1.639,1.179,1.639c1.479,0,2.078-2.198,2.078-3.417C133.836,54.971,133.687,54.041,132.717,54.041z M132.597,54.641
		c0.419,0,0.509,0.43,0.509,0.93c0,0.82-0.37,2.879-1.249,2.879c-0.51,0-0.549-0.57-0.549-1.119
		C131.308,56.38,131.798,54.641,132.597,54.641z"/>
	<path fill-rule="evenodd" clip-rule="evenodd" fill="#DFAF0C" d="M138.807,54.121l-0.522,2.789
		c-0.161,0.859-0.66,1.508-1.138,1.508c-0.289,0-0.408-0.199-0.408-0.499c0-0.25,0.03-0.479,0.08-0.759l0.568-3.039h-0.708
		l-0.6,3.158c-0.05,0.26-0.08,0.5-0.08,0.77c0,0.52,0.24,0.989,0.819,0.989c0.458,0,0.917-0.239,1.285-0.839h0.021l-0.07,0.76h0.653
		c0.04-0.391,0.09-0.95,0.22-1.649l0.6-3.188H138.807z"/>
	<path fill-rule="evenodd" clip-rule="evenodd" fill="#DFAF0C" d="M141.159,58.758c0.14,0.11,0.52,0.26,0.899,0.26
		c0.899,0,1.579-0.52,1.579-1.559c0-0.489-0.3-0.939-0.68-1.269c-0.23-0.21-0.45-0.431-0.45-0.81c0-0.42,0.28-0.75,0.78-0.75
		c0.2,0,0.42,0.07,0.56,0.15l0.2-0.55c-0.149-0.11-0.43-0.19-0.749-0.19c-0.91,0-1.509,0.641-1.509,1.459
		c0,0.461,0.3,0.88,0.629,1.18c0.28,0.25,0.49,0.51,0.49,0.939c0,0.46-0.29,0.81-0.78,0.819c-0.36,0-0.6-0.13-0.75-0.229
		L141.159,58.758z"/>
	<path fill-rule="evenodd" clip-rule="evenodd" fill="#DFAF0C" d="M148.388,58.158c-0.22,0.131-0.48,0.26-0.859,0.26
		c-0.38,0-0.629-0.219-0.74-0.629c-0.08-0.289-0.05-0.83-0.03-0.969c1.319-0.011,2.358-0.51,2.358-1.68c0-0.56-0.29-1.1-1-1.1
		c-1.379,0-2.108,1.959-2.108,3.269c0,0.929,0.33,1.708,1.349,1.708c0.419,0,0.79-0.109,1.139-0.299L148.388,58.158z
		 M148.438,55.191c0,0.779-0.809,1.039-1.579,1.049c0.26-1.049,0.719-1.579,1.149-1.579c0.29,0,0.43,0.19,0.43,0.52V55.191z"/>
	<path fill-rule="evenodd" clip-rule="evenodd" fill="#DFAF0C" d="M150.681,58.758c0.14,0.11,0.52,0.26,0.899,0.26
		c0.899,0,1.578-0.52,1.578-1.559c0-0.489-0.299-0.939-0.679-1.269c-0.229-0.21-0.45-0.431-0.45-0.81c0-0.42,0.28-0.75,0.779-0.75
		c0.2,0,0.42,0.07,0.561,0.15l0.199-0.55c-0.149-0.11-0.43-0.19-0.749-0.19c-0.909,0-1.509,0.641-1.509,1.459
		c0,0.461,0.299,0.88,0.629,1.18c0.28,0.25,0.49,0.51,0.49,0.939c0,0.46-0.29,0.81-0.779,0.819c-0.36,0-0.6-0.13-0.75-0.229
		L150.681,58.758z"/>
	<path fill-rule="evenodd" clip-rule="evenodd" fill="#DFAF0C" d="M159.672,53.303l-0.149,0.818h-0.59l-0.1,0.561h0.579
		l-0.529,2.777c-0.08,0.391-0.1,0.6-0.1,0.789c0,0.471,0.299,0.77,0.809,0.77c0.16,0,0.35-0.01,0.52-0.069l0.061-0.56
		c-0.09,0.02-0.17,0.02-0.3,0.02c-0.239,0-0.329-0.129-0.329-0.359c0-0.13,0.02-0.359,0.069-0.609l0.52-2.758h0.909l0.11-0.561
		h-0.919l0.229-1.129L159.672,53.303z"/>
	<path fill-rule="evenodd" clip-rule="evenodd" fill="#DFAF0C" d="M164.843,54.041c-1.438,0-2.139,2.059-2.139,3.358
		c0,0.859,0.28,1.639,1.179,1.639c1.479,0,2.079-2.198,2.079-3.417C165.962,54.971,165.812,54.041,164.843,54.041z M164.723,54.641
		c0.42,0,0.51,0.43,0.51,0.93c0,0.82-0.369,2.879-1.249,2.879c-0.51,0-0.55-0.57-0.55-1.119
		C163.434,56.38,163.924,54.641,164.723,54.641z"/>
	<polygon fill-rule="evenodd" clip-rule="evenodd" fill="#DFAF0C" points="174.214,55.121 172.545,55.121 172.984,52.862 
		174.754,52.862 174.873,52.223 172.385,52.223 171.105,58.959 173.715,58.959 173.844,58.309 171.945,58.309 172.436,55.74 
		174.094,55.74 	"/>
	<path fill-rule="evenodd" clip-rule="evenodd" fill="#DFAF0C" d="M176.876,58.959l0.51-2.689c0.18-0.919,0.72-1.608,1.169-1.608
		c0.3,0,0.42,0.2,0.42,0.489c0,0.25-0.029,0.45-0.07,0.67l-0.59,3.139h0.721l0.589-3.148c0.05-0.28,0.09-0.51,0.09-0.789
		c0-0.51-0.229-0.98-0.829-0.98c-0.49,0-0.91,0.26-1.299,0.85h-0.021l0.08-0.77h-0.63c-0.05,0.391-0.119,0.96-0.26,1.659
		l-0.59,3.179H176.876z"/>
	<path fill-rule="evenodd" clip-rule="evenodd" fill="#DFAF0C" d="M182.727,54.121l-0.95,5.057c-0.2,1.02-0.489,1.18-0.819,1.18
		c-0.119,0-0.22-0.02-0.3-0.03l-0.069,0.58c0.109,0.04,0.26,0.05,0.419,0.05c0.5,0,0.87-0.24,1.06-0.54
		c0.17-0.26,0.31-0.64,0.47-1.479l0.909-4.817H182.727z M183.256,53.361c0.26,0,0.479-0.18,0.51-0.509c0.02-0.26-0.12-0.47-0.4-0.47
		c-0.26,0-0.459,0.25-0.479,0.51c-0.01,0.279,0.11,0.469,0.36,0.469H183.256z"/>
	<path fill-rule="evenodd" clip-rule="evenodd" fill="#DFAF0C" d="M187.517,54.041c-1.438,0-2.138,2.059-2.138,3.358
		c0,0.859,0.279,1.639,1.178,1.639c1.479,0,2.079-2.198,2.079-3.417C188.636,54.971,188.486,54.041,187.517,54.041z M187.396,54.641
		c0.42,0,0.51,0.43,0.51,0.93c0,0.82-0.369,2.879-1.249,2.879c-0.51,0-0.55-0.57-0.55-1.119
		C186.107,56.38,186.598,54.641,187.396,54.641z"/>
	<path fill-rule="evenodd" clip-rule="evenodd" fill="#DFAF0C" d="M191.028,54.121l0.43,4.547c0.01,0.101,0,0.17-0.04,0.271
		c-0.15,0.359-0.48,0.8-0.779,1.049c-0.25,0.21-0.51,0.36-0.72,0.46l0.29,0.609c0.18-0.061,0.459-0.24,0.749-0.479
		c0.64-0.55,1.149-1.449,1.589-2.528l1.619-3.928h-0.74l-0.998,2.688c-0.16,0.43-0.301,0.8-0.43,1.22h-0.021
		c-0.021-0.48-0.03-0.76-0.05-1.199l-0.16-2.709H191.028z"/>
	<polygon fill-rule="evenodd" clip-rule="evenodd" fill="#DFAF0C" points="198.82,58.959 201.389,58.959 201.509,58.318 
		199.66,58.318 200.819,52.223 200.1,52.223 	"/>
	<path fill-rule="evenodd" clip-rule="evenodd" fill="#DFAF0C" d="M204.341,58.959l0.93-4.838h-0.72l-0.92,4.838H204.341z
		 M205.09,53.361c0.26,0,0.48-0.18,0.5-0.509c0.02-0.26-0.109-0.47-0.39-0.47c-0.271,0-0.46,0.25-0.479,0.51
		c-0.02,0.279,0.109,0.469,0.359,0.469H205.09z"/>
	<path fill-rule="evenodd" clip-rule="evenodd" fill="#DFAF0C" d="M207.922,58.959l0.83-4.268h0.919l0.101-0.57h-0.92l0.04-0.229
		c0.101-0.649,0.42-1.319,0.97-1.319c0.17,0,0.27,0.021,0.369,0.051l0.17-0.57c-0.09-0.05-0.279-0.09-0.51-0.09
		c-0.409,0-0.76,0.16-1.02,0.41c-0.369,0.369-0.568,0.919-0.669,1.459l-0.06,0.289h-0.609l-0.101,0.57h0.6l-0.819,4.268H207.922z"/>
	<path fill-rule="evenodd" clip-rule="evenodd" fill="#DFAF0C" d="M213.553,58.158c-0.221,0.131-0.48,0.26-0.859,0.26
		c-0.381,0-0.63-0.219-0.74-0.629c-0.08-0.289-0.05-0.83-0.029-0.969c1.318-0.011,2.357-0.51,2.357-1.68c0-0.56-0.289-1.1-0.998-1.1
		c-1.38,0-2.109,1.959-2.109,3.269c0,0.929,0.33,1.708,1.35,1.708c0.42,0,0.789-0.109,1.139-0.299L213.553,58.158z M213.603,55.191
		c0,0.779-0.81,1.039-1.579,1.049c0.26-1.049,0.72-1.579,1.149-1.579c0.29,0,0.43,0.19,0.43,0.52V55.191z"/>
</g>
<g>
	<polygon fill-rule="evenodd" clip-rule="evenodd" fill="#F1F2F2" points="124.319,46.266 124.319,41.077 129.317,41.077 
		129.317,41.771 125.184,41.771 125.184,43.219 127.708,43.219 127.708,43.902 125.184,43.902 125.184,45.552 129.357,45.552 
		129.357,46.266 	"/>
	<path fill-rule="evenodd" clip-rule="evenodd" fill="#F1F2F2" d="M138.639,41.781h-3.67v1.447h3.268
		c0.469,0,0.788,0.088,0.956,0.262c0.167,0.174,0.251,0.496,0.251,0.965v0.584c0,0.477-0.084,0.801-0.251,0.975
		c-0.168,0.168-0.486,0.252-0.956,0.252h-3.027c-0.469,0-0.791-0.084-0.965-0.252c-0.167-0.174-0.251-0.498-0.251-0.975v-0.141
		l0.805-0.191v0.834h3.861v-1.559h-3.258c-0.463,0-0.781-0.083-0.956-0.251c-0.167-0.175-0.251-0.499-0.251-0.976v-0.452
		c0-0.482,0.084-0.808,0.251-0.976c0.174-0.168,0.493-0.251,0.956-0.251h2.765c0.443,0,0.754,0.08,0.936,0.241
		c0.188,0.16,0.281,0.459,0.281,0.895v0.111l-0.744,0.211V41.781z"/>
	<polygon fill-rule="evenodd" clip-rule="evenodd" fill="#F1F2F2" points="146.875,41.781 146.875,46.266 146.01,46.266 
		146.01,41.781 143.637,41.781 143.637,41.077 149.258,41.077 149.258,41.781 	"/>
	<path fill-rule="evenodd" clip-rule="evenodd" fill="#F1F2F2" d="M152.496,46.266l2.836-5.188h0.925l2.886,5.188h-0.955
		l-0.664-1.277h-3.51l-0.663,1.277H152.496z M154.377,44.325h2.795l-1.397-2.655L154.377,44.325z"/>
	<polygon fill-rule="evenodd" clip-rule="evenodd" fill="#F1F2F2" points="165.629,41.781 165.629,46.266 164.764,46.266 
		164.764,41.781 162.391,41.781 162.391,41.077 168.012,41.077 168.012,41.781 	"/>
	<polygon fill-rule="evenodd" clip-rule="evenodd" fill="#F1F2F2" points="172.266,46.266 172.266,41.077 177.264,41.077 
		177.264,41.771 173.131,41.771 173.131,43.219 175.654,43.219 175.654,43.902 173.131,43.902 173.131,45.552 177.304,45.552 
		177.304,46.266 	"/>
	<path fill-rule="evenodd" clip-rule="evenodd" fill="#F1F2F2" d="M187.705,46.266l2.836-5.188h0.926l2.886,5.188h-0.955
		l-0.664-1.277h-3.509l-0.664,1.277H187.705z M189.586,44.325h2.795l-1.396-2.655L189.586,44.325z"/>
	<path fill-rule="evenodd" clip-rule="evenodd" fill="#F1F2F2" d="M203.684,41.781h-4.062v3.76h4.062v-1.518h-2.102v-0.664h2.967
		v1.68c0,0.477-0.087,0.801-0.262,0.975c-0.167,0.168-0.485,0.252-0.955,0.252h-3.358c-0.47,0-0.791-0.084-0.966-0.252
		c-0.167-0.174-0.25-0.498-0.25-0.975v-2.735c0-0.476,0.083-0.798,0.25-0.966c0.175-0.174,0.496-0.261,0.966-0.261h3.358
		c0.456,0,0.771,0.083,0.945,0.251c0.182,0.161,0.271,0.467,0.271,0.915v0.131l-0.865,0.171V41.781z"/>
	<polygon fill-rule="evenodd" clip-rule="evenodd" fill="#F1F2F2" points="209.838,46.266 209.838,41.077 214.836,41.077 
		214.836,41.771 210.703,41.771 210.703,43.219 213.228,43.219 213.228,43.902 210.703,43.902 210.703,45.552 214.877,45.552 
		214.877,46.266 	"/>
	<path fill-rule="evenodd" clip-rule="evenodd" fill="#F1F2F2" d="M219.733,46.266v-5.188h0.543l3.882,3.47
		c0.188,0.167,0.385,0.385,0.594,0.652c-0.055-0.321-0.081-0.747-0.081-1.276v-2.846h0.794v5.188h-0.482l-3.992-3.609
		c-0.146-0.135-0.23-0.211-0.251-0.232c-0.107-0.106-0.198-0.225-0.271-0.352c0.04,0.309,0.061,0.688,0.061,1.137v3.057H219.733z"/>
	<polygon fill-rule="evenodd" clip-rule="evenodd" fill="#F1F2F2" points="232.967,41.781 232.967,46.266 232.103,46.266 
		232.103,41.781 229.729,41.781 229.729,41.077 235.351,41.077 235.351,41.781 	"/>
	<path fill-rule="evenodd" clip-rule="evenodd" fill="#F1F2F2" d="M244.028,41.781h-3.67v1.447h3.269
		c0.469,0,0.787,0.088,0.955,0.262c0.167,0.174,0.251,0.496,0.251,0.965v0.584c0,0.477-0.084,0.801-0.251,0.975
		c-0.168,0.168-0.486,0.252-0.955,0.252H240.6c-0.469,0-0.791-0.084-0.965-0.252c-0.168-0.174-0.252-0.498-0.252-0.975v-0.141
		l0.805-0.191v0.834h3.861v-1.559h-3.258c-0.463,0-0.781-0.083-0.955-0.251c-0.168-0.175-0.252-0.499-0.252-0.976v-0.452
		c0-0.482,0.084-0.808,0.252-0.976c0.174-0.168,0.492-0.251,0.955-0.251h2.765c0.442,0,0.755,0.08,0.936,0.241
		c0.188,0.16,0.281,0.459,0.281,0.895v0.111l-0.744,0.211V41.781z"/>
</g>
<g>
	<polygon fill-rule="evenodd" clip-rule="evenodd" fill="#FFFFFF" points="111.634,32.366 113.706,32.366 113.706,26.834 
		120.419,26.834 120.419,32.366 122.491,32.366 122.491,19.677 120.419,19.677 120.419,24.78 113.706,24.78 113.706,19.677 
		111.634,19.677 	"/>
	<path fill-rule="evenodd" clip-rule="evenodd" fill="#FFFFFF" d="M129.409,32.554c3.459,0,4.812-1.747,4.812-5s-1.353-5-4.812-5
		s-4.812,1.747-4.812,5S125.95,32.554,129.409,32.554z M129.409,30.756c-2.124,0-2.808-1.165-2.808-3.151s0.685-3.134,2.808-3.134
		c2.106,0,2.808,1.147,2.808,3.134S131.515,30.756,129.409,30.756z"/>
	<path fill-rule="evenodd" clip-rule="evenodd" fill="#FFFFFF" d="M139.842,32.366c0.462,0,0.891-0.018,1.062-0.035v-1.747h-0.359
		c-0.891,0-1.027-0.273-1.027-1.111V19.077h-1.969v10.635C137.548,31.698,138.216,32.366,139.842,32.366z"/>
	<path fill-rule="evenodd" clip-rule="evenodd" fill="#FFFFFF" d="M144.299,32.366h1.969v-9.59h-1.969V32.366z M144.282,21.731
		h2.003V19.54h-2.003V21.731z"/>
	<path fill-rule="evenodd" clip-rule="evenodd" fill="#FFFFFF" d="M153.723,32.537c1.986,0,3.014-0.376,3.596-1.13l0.223,1.027
		l1.524-0.154V19.077h-2.003v4.538c-0.445-0.668-1.354-1.045-3.271-1.045c-3.288,0-4.195,2.106-4.195,4.949
		C149.596,30.396,150.486,32.537,153.723,32.537z M154.168,30.722c-2.055,0-2.551-1.301-2.551-3.202
		c0-1.867,0.496-3.065,2.551-3.065c2.191,0,2.895,0.822,2.895,3.065C157.062,29.797,156.291,30.722,154.168,30.722z"/>
	<path fill-rule="evenodd" clip-rule="evenodd" fill="#FFFFFF" d="M165.646,32.537c1.969,0,3.014-0.411,3.562-1.147
		c0.257,0.789,0.72,0.977,1.695,0.977c0.429,0,0.685,0,0.821-0.035v-1.712c-0.838,0-0.907-0.137-0.907-1.01v-3.219
		c0-2.723-0.616-3.836-3.956-3.836c-1.797,0-3.373,0.668-4.023,1.113l1.045,1.558c0.599-0.359,1.592-0.805,2.773-0.805
		c1.9,0,2.209,0.531,2.243,1.678h-0.479c-4.709,0-6.25,0.788-6.25,3.51C162.17,31.235,162.82,32.537,165.646,32.537z
		 M165.988,30.824c-1.523,0-1.935-0.479-1.935-1.37c0-1.284,0.719-1.713,4.486-1.713h0.359v0.497
		C168.899,30.037,168.043,30.824,165.988,30.824z"/>
	<path fill-rule="evenodd" clip-rule="evenodd" fill="#FFFFFF" d="M175.942,35.242c1.901,0,2.706-0.616,3.288-2.192l3.99-10.274
		h-2.09l-2.568,7.055l-2.637-7.055h-2.123l3.682,9.453l-0.223,0.616c-0.206,0.634-0.514,0.788-1.49,0.788h-0.719v1.592
		C175.275,35.242,175.754,35.242,175.942,35.242z"/>
	<path fill-rule="evenodd" clip-rule="evenodd" fill="#FFFFFF" d="M189.441,32.537c1.986,0,3.014-0.376,3.596-1.13l0.223,1.027
		l1.524-0.154V19.077h-2.003v4.538c-0.445-0.668-1.354-1.045-3.271-1.045c-3.287,0-4.195,2.106-4.195,4.949
		C185.314,30.396,186.205,32.537,189.441,32.537z M189.887,30.722c-2.055,0-2.552-1.301-2.552-3.202
		c0-1.867,0.497-3.065,2.552-3.065c2.191,0,2.895,0.822,2.895,3.065C192.781,29.797,192.01,30.722,189.887,30.722z"/>
	<path fill-rule="evenodd" clip-rule="evenodd" fill="#FFFFFF" d="M198.471,32.366h2.004v-4.932c0-1.661,0.65-2.74,2.945-2.757
		v-2.003c-1.627,0.034-2.791,0.548-3.186,1.199l-0.205-1.096l-1.559,0.12V32.366z"/>
	<path fill-rule="evenodd" clip-rule="evenodd" fill="#FFFFFF" d="M210.65,32.554c1.833,0,2.98-0.411,4.076-1.25l-1.062-1.387
		c-0.736,0.531-1.49,0.925-3.015,0.925c-2.14,0-2.739-0.941-2.859-2.449h6.936c0.068-3.031-0.068-5.839-4.109-5.839
		c-3.904,0-4.761,2.278-4.761,5C205.856,30.311,206.645,32.554,210.65,32.554z M210.565,24.317c2.055,0,2.192,0.977,2.277,2.346
		h-5.052C207.945,25.242,208.579,24.317,210.565,24.317z"/>
	<path fill-rule="evenodd" clip-rule="evenodd" fill="#FFFFFF" d="M220.913,32.537c1.97,0,3.015-0.411,3.562-1.147
		c0.258,0.789,0.72,0.977,1.695,0.977c0.429,0,0.686,0,0.822-0.035v-1.712c-0.839,0-0.908-0.137-0.908-1.01v-3.219
		c0-2.723-0.615-3.836-3.955-3.836c-1.798,0-3.373,0.668-4.023,1.113l1.044,1.558c0.6-0.359,1.593-0.805,2.774-0.805
		c1.9,0,2.209,0.531,2.242,1.678h-0.479c-4.709,0-6.25,0.788-6.25,3.51C217.438,31.235,218.088,32.537,220.913,32.537z
		 M221.256,30.824c-1.523,0-1.936-0.479-1.936-1.37c0-1.284,0.72-1.713,4.486-1.713h0.359v0.497
		C224.166,30.037,223.311,30.824,221.256,30.824z"/>
	<path fill-rule="evenodd" clip-rule="evenodd" fill="#FFFFFF" d="M230.183,32.366h2.003v-5.257c0-1.507,0.274-2.568,2.467-2.568
		c1.986,0,2.037,0.993,2.037,2.397v5.429h1.986v-5.257c0-1.507,0.291-2.568,2.483-2.568c1.986,0,2.021,0.993,2.021,2.397v5.429
		h2.004v-5.822c0-2.38-0.377-3.99-3.357-3.99c-2.105,0-3.168,0.479-3.63,1.13c-0.274-0.651-0.942-1.13-2.876-1.13
		c-2.039,0-3.015,0.479-3.408,1.062l-0.172-0.839l-1.558,0.12V32.366z"/>
</g>
</svg>
